<svg width="260" height="170" viewBox="0 0 260 170" fill="none" xmlns="http://www.w3.org/2000/svg">
<g clip-path="url(#clip0_53_2)">
<path d="M190 25H70V145H190V25Z" fill="white"/>
<path d="M112.988 112.022C112.299 112.022 111.955 111.104 111.955 109.262V63.7589C111.955 62.8795 111.779 62.4666 111.42 62.5202L108.125 63.346C107.52 63.3995 107.222 62.7954 107.222 61.5338V57.5807C107.222 56.4873 107.551 55.8679 108.209 55.7303L119.082 52.9318C119.166 52.9088 119.288 52.8936 119.449 52.8936C120.053 52.8936 120.351 53.5358 120.351 54.828V109.269C120.351 111.112 119.991 112.03 119.28 112.03L112.988 112.022ZM141.149 112.106C140.048 112.106 139.099 112.03 138.289 111.877C137.478 111.724 136.637 111.38 135.758 110.844C134.879 110.309 134.16 109.575 133.594 108.642C133.028 107.709 132.57 106.402 132.218 104.727C131.866 103.053 131.683 101.065 131.683 98.7557V77.6368C131.683 77.0862 131.53 76.811 131.231 76.811H128.678C127.989 76.811 127.645 76.1534 127.645 74.8382V72.6132C127.645 71.2675 127.989 70.5946 128.678 70.5946H131.231C131.53 70.5946 131.683 70.2276 131.683 69.4859L132.424 53.467C132.508 52.0142 132.86 51.2878 133.495 51.2878H137.616C138.304 51.2878 138.648 52.0142 138.648 53.467V69.4859C138.648 70.2276 138.809 70.5946 139.145 70.5946H144.398C145.086 70.5946 145.431 71.2675 145.431 72.6132V74.8382C145.431 76.1534 145.086 76.811 144.398 76.811H139.13C138.939 76.811 138.809 76.8569 138.74 76.9563C138.671 77.048 138.641 77.2774 138.641 77.6368V98.8857C138.641 100.476 138.74 101.807 138.946 102.862C139.153 103.917 139.451 104.697 139.849 105.186C140.246 105.676 140.644 106.012 141.042 106.173C141.439 106.341 141.929 106.417 142.502 106.417H145.423C146.165 106.417 146.532 106.929 146.532 107.939V110.409C146.532 111.533 146.134 112.098 145.339 112.098L141.149 112.106ZM156.953 117.045C157.58 117.045 158.131 116.533 158.597 115.501C159.064 114.469 159.301 113.008 159.301 111.112C159.301 110.668 159.026 109.147 158.475 106.54L150.401 72.9802C150.347 72.5979 150.316 72.292 150.316 72.0703C150.316 71.0839 150.523 70.5869 150.936 70.5869H155.921C156.303 70.5869 156.617 70.7169 156.869 70.9769C157.122 71.2369 157.313 71.7645 157.443 72.5597L162.795 100.889C162.902 101.218 162.971 101.386 163.002 101.386C163.109 101.386 163.17 101.233 163.17 100.935L167.368 72.682C167.475 71.8562 167.65 71.3057 167.88 71.0151C168.109 70.7246 168.407 70.5793 168.767 70.5793H172.223C172.689 70.5793 172.926 71.1145 172.926 72.185C172.926 72.4297 172.896 72.7508 172.842 73.1331L165.51 111.311C164.936 114.469 164.301 116.885 163.613 118.559C162.925 120.234 162.16 121.373 161.304 121.977C160.299 122.627 159.121 122.957 157.924 122.925H157.512C155.286 122.925 153.78 122.337 152.985 121.151C152.763 120.907 152.656 120.272 152.656 119.255C152.656 117.221 152.985 116.204 153.643 116.204C153.696 116.204 154.193 116.342 155.126 116.617C156.074 116.908 156.678 117.045 156.953 117.045ZM92.2662 112.098C91.5781 112.098 91.234 111.181 91.234 109.338V63.8353C91.234 62.956 91.0581 62.5431 90.6988 62.5966L87.4032 63.4224C86.7992 63.4759 86.501 62.8719 86.501 61.6103V57.6572C86.501 56.5637 86.8298 55.9444 87.4873 55.8068L98.3679 53.0006C98.452 52.9777 98.5744 52.9624 98.735 52.9624C99.339 52.9624 99.6372 53.6047 99.6372 54.8969V109.338C99.6372 111.181 99.2778 112.098 98.5667 112.098H92.2662Z" fill="#222222" stroke="#222222" stroke-width="3.56824" stroke-miterlimit="10"/>
</g>
<defs>
<clipPath id="clip0_53_2">
<rect width="120" height="120" fill="white" transform="translate(70 25)"/>
</clipPath>
</defs>
</svg>
