<svg width="460" height="160" viewBox="0 0 460 160" fill="none" xmlns="http://www.w3.org/2000/svg">
<path d="M267.481 72.4284H278.052V110.286H267.481V105.364C263.705 111.043 258.797 111.421 255.777 111.421C244.073 111.421 236.521 102.336 236.521 91.357C236.521 79.9999 244.072 71.2927 255.021 71.2927C258.042 71.2927 263.705 71.6713 267.103 77.3499V72.4284H267.481ZM247.848 91.357C247.848 97.4142 252.001 101.957 258.419 101.957C264.46 101.957 268.991 97.4142 268.991 91.357C268.991 85.2999 264.838 80.757 258.419 80.757C252.379 80.757 247.848 85.2999 247.848 91.357Z" fill="white"/>
<path d="M298.817 81.5138V110.285H288.246V81.5138H284.093V72.4281H288.246V59.5566H298.817V72.4281H305.991V81.5138H298.817Z" fill="white"/>
<path d="M330.91 81.5142C328.267 79.2427 326.001 78.8642 324.869 78.8642C322.226 78.8642 320.716 79.9999 320.716 81.8927C320.716 83.0284 321.093 84.1642 324.114 85.2999L326.756 86.057C329.777 87.1927 334.307 88.3284 336.195 91.357C337.328 92.8713 338.083 95.1427 338.083 97.7927C338.083 101.2 336.95 104.607 333.93 107.257C330.91 109.907 327.134 111.421 322.603 111.421C314.675 111.421 310.522 107.636 307.879 104.986L313.542 98.5499C315.807 100.821 318.828 103.093 321.848 103.093C324.869 103.093 327.134 101.578 327.134 98.9284C327.134 96.657 325.246 95.5213 323.736 95.1427L321.471 94.3856C318.828 93.2499 315.807 92.1142 313.542 89.8427C311.654 87.9499 310.522 85.6784 310.522 82.6499C310.522 78.8642 312.41 75.8356 314.297 73.9427C317.318 71.6713 321.093 71.2927 324.114 71.2927C326.756 71.2927 331.287 71.6713 336.195 75.457L330.91 81.5142Z" fill="white"/>
<path d="M353.941 77.3498C357.716 72.0498 363.002 71.2927 366.022 71.2927C376.971 71.2927 384.522 79.9998 384.522 91.357C384.522 102.714 376.971 111.421 365.645 111.421C363.379 111.421 357.716 111.043 353.563 105.364V110.286H343.369V46.6855H353.941V77.3498ZM352.808 91.357C352.808 97.4141 356.961 101.957 363.379 101.957C369.42 101.957 373.951 97.4141 373.951 91.357C373.951 85.2998 369.798 80.757 363.379 80.757C356.961 80.757 352.808 85.2998 352.808 91.357Z" fill="white"/>
<path d="M401.89 104.607L383.768 72.4285H396.227L407.931 94.007L418.502 72.4285H430.584L400.38 130.35H388.298L401.89 104.607Z" fill="white"/>
<path d="M233.879 78.8644H223.307H207.45V89.4644H221.42C219.154 96.6572 213.869 101.579 204.052 101.579C193.103 101.579 185.175 92.493 185.175 81.5144C185.175 70.5358 192.726 61.0715 203.675 61.0715C209.716 61.0715 215.756 64.1001 219.532 69.0215L228.216 63.343C222.552 55.393 213.491 50.8501 203.675 50.8501C187.063 50.8501 173.471 64.4787 173.471 81.5144C173.471 98.5501 186.307 112.179 203.675 112.179C221.042 112.179 233.879 98.5501 233.879 81.5144C234.256 80.3787 233.879 79.6215 233.879 78.8644Z" fill="white"/>
<path d="M124.388 80H97.959V87.5715H116.081C113.439 98.9286 105.132 108.393 94.1835 112.179L50.7651 68.6429C55.2957 55.3929 68.1325 45.9286 82.8569 45.9286C94.1835 45.9286 104.377 51.6072 110.796 60.3143L116.459 55.3929C108.908 45.1715 96.8263 38.3572 82.8569 38.3572C63.2243 38.3572 46.612 52.3643 42.459 70.9143L92.2957 120.886C110.418 116.343 124.388 99.6857 124.388 80Z" fill="white"/>
<path d="M41.3262 80.3787C41.3262 90.9787 45.4792 101.2 53.4078 109.15C61.3364 117.1 71.9078 121.264 82.1017 121.264L41.3262 80.3787Z" fill="white"/>
<path d="M82.8571 27C53.7857 27 30 50.85 30 80C30 109.15 53.7857 133 82.8571 133C111.929 133 135.714 109.15 135.714 80C135.714 50.85 111.929 27 82.8571 27ZM53.4082 109.529C45.4796 101.579 41.3265 90.9786 41.3265 80.7571L82.4796 121.643C71.9082 121.264 61.3367 117.479 53.4082 109.529ZM91.9184 120.507L42.4592 70.9143C46.6122 52.3643 63.2245 38.3571 82.8571 38.3571C96.8265 38.3571 108.908 45.1714 116.459 55.3929L110.796 60.3143C104.378 51.6071 94.1837 45.9286 82.8571 45.9286C68.1327 45.9286 55.6735 55.3929 50.7653 68.6429L94.1837 112.179C105.133 108.393 113.439 98.9286 116.082 87.5714H97.9592V80H124.388C124.388 99.6857 110.418 116.343 91.9184 120.507Z" fill="#663399"/>
</svg>
