<svg width="460" height="160" viewBox="0 0 460 160" fill="none" xmlns="http://www.w3.org/2000/svg">
<path d="M287.338 45.0295H347.953V56.2265H323.908V115.132H311.884V56.2265H287.338V45.0295Z" fill="white"/>
<path d="M187.648 45.0295V56.2265H139.061V74.2391H178.135V85.4361H139.061V103.936H187.648V115.132H127.038V56.2265H127.033V45.0295H187.648Z" fill="white"/>
<path d="M217.918 45.0583H202.184L258.54 115.161H274.32L246.138 80.1339L274.275 45.1118L258.54 45.1362L238.261 70.3426L217.918 45.0583Z" fill="white"/>
<path d="M234.064 95.1336L226.184 85.3289L202.139 115.215H217.918L234.064 95.1336Z" fill="white"/>
<path fill-rule="evenodd" clip-rule="evenodd" d="M127.461 115.132L71.0285 45H56V115.103H68.0229V59.9845L112.357 115.132H127.461Z" fill="white"/>
<path d="M350.657 114.704C349.776 114.704 349.027 114.399 348.4 113.788C347.773 113.178 347.463 112.439 347.471 111.563C347.463 110.711 347.773 109.98 348.4 109.37C349.027 108.759 349.776 108.454 350.657 108.454C351.504 108.454 352.245 108.759 352.872 109.37C353.508 109.98 353.825 110.711 353.834 111.563C353.825 112.141 353.678 112.672 353.385 113.146C353.084 113.628 352.701 114.005 352.22 114.278C351.748 114.56 351.226 114.704 350.657 114.704Z" fill="white"/>
<path d="M371.179 85.1719H376.507V105.714C376.499 107.602 376.091 109.217 375.293 110.575C374.487 111.933 373.37 112.969 371.937 113.7C370.511 114.423 368.841 114.793 366.943 114.793C365.208 114.793 363.652 114.479 362.267 113.869C360.882 113.258 359.783 112.342 358.976 111.137C358.161 109.932 357.762 108.43 357.762 106.63H363.098C363.106 107.418 363.286 108.1 363.627 108.671C363.969 109.241 364.442 109.675 365.045 109.98C365.655 110.286 366.357 110.438 367.146 110.438C368.002 110.438 368.735 110.261 369.33 109.9C369.924 109.546 370.381 109.016 370.699 108.309C371.008 107.61 371.171 106.743 371.179 105.714V85.1719Z" fill="white"/>
<path d="M398.426 93.2055C398.296 91.9603 397.725 90.9882 396.732 90.2973C395.729 89.5984 394.434 89.2529 392.846 89.2529C391.73 89.2529 390.769 89.4217 389.971 89.751C389.172 90.0884 388.553 90.5383 388.129 91.1087C387.706 91.6791 387.494 92.3299 387.477 93.061C387.477 93.6716 387.624 94.2018 387.909 94.6436C388.194 95.0935 388.577 95.4711 389.074 95.7764C389.562 96.0897 390.108 96.3468 390.704 96.5556C391.306 96.7645 391.909 96.9413 392.512 97.0859L395.289 97.7688C396.406 98.0258 397.49 98.3714 398.524 98.8132C399.558 99.247 400.495 99.8014 401.318 100.468C402.141 101.135 402.793 101.938 403.273 102.878C403.754 103.818 403.998 104.919 403.998 106.188C403.998 107.899 403.558 109.402 402.67 110.703C401.782 111.997 400.503 113.009 398.825 113.74C397.155 114.463 395.135 114.833 392.756 114.833C390.459 114.833 388.455 114.479 386.769 113.772C385.075 113.073 383.754 112.045 382.801 110.695C381.848 109.346 381.335 107.699 381.262 105.762H386.541C386.614 106.775 386.94 107.618 387.494 108.301C388.056 108.976 388.789 109.474 389.685 109.811C390.59 110.141 391.599 110.31 392.716 110.31C393.881 110.31 394.907 110.133 395.795 109.787C396.674 109.442 397.367 108.96 397.864 108.333C398.369 107.715 398.622 106.984 398.63 106.148C398.622 105.385 398.393 104.75 397.953 104.252C397.506 103.754 396.886 103.336 396.096 102.999C395.298 102.661 394.369 102.356 393.31 102.091L389.938 101.239C387.502 100.621 385.571 99.6809 384.161 98.4196C382.745 97.1582 382.043 95.4872 382.043 93.3904C382.043 91.6712 382.516 90.1608 383.47 88.8673C384.414 87.5739 385.71 86.5697 387.347 85.8546C388.993 85.1317 390.85 84.7781 392.919 84.7781C395.021 84.7781 396.862 85.1317 398.451 85.8546C400.039 86.5697 401.286 87.5659 402.189 88.8352C403.094 90.1045 403.566 91.5586 403.591 93.2055H398.426Z" fill="white"/>
</svg>
