<svg width="460" height="160" viewBox="0 0 460 160" fill="none" xmlns="http://www.w3.org/2000/svg">
<g clip-path="url(#clip0_53_22)">
<path d="M219.995 124C220.935 124 221.735 123.212 221.735 122.24V81.32C221.735 81.32 223.91 85.28 227.825 91.88L244.79 121.36C245.566 123.006 247.289 124 248.705 124H260.45V58H248.705C247.923 58 246.965 58.6574 246.965 59.76V101.12L239.135 87.04L223.475 60.2C222.713 58.8322 221.073 58 219.56 58H208.25V124H219.995Z" fill="white"/>
<path d="M371.811 76.4799H377.466C378.906 76.4799 380.076 75.298 380.076 73.8399V62.3999H392.256V76.4799H404.001V87.0399H392.256V105.96C392.256 110.58 394.455 112.56 398.346 112.56H404.001V124H396.606C386.579 124 380.076 117.431 380.076 106.4V87.0399H371.811V76.4799Z" fill="white"/>
<path d="M313.086 76.4799V103.76C313.086 109.922 310.799 115.116 307.431 118.72C304.063 122.324 299.412 124 293.076 124C286.74 124 281.654 122.324 278.286 118.72C274.975 115.116 272.631 109.922 272.631 103.76V76.4799H279.591C281.075 76.4799 282.536 76.7535 283.506 77.7999C284.476 78.788 284.811 79.3685 284.811 80.8799V103.76C284.811 107.306 285.01 109.496 286.551 111.24C288.092 112.926 289.993 113.44 293.076 113.44C296.215 113.44 297.625 112.926 299.166 111.24C300.707 109.496 300.906 107.306 300.906 103.76V80.8799C300.906 79.3685 301.241 78.4063 302.211 77.3599C303.063 76.4406 303.963 76.4623 305.256 76.4799C305.434 76.4824 305.946 76.4799 306.126 76.4799H313.086Z" fill="white"/>
<path d="M350.06 99.36L364.85 76.48H353.54C352.116 76.48 350.849 76.9973 350.06 78.24L343.1 88.8L336.575 78.68C335.787 77.4373 334.085 76.48 332.66 76.48H321.785L336.575 98.92L320.48 124H331.79C333.204 124 334.479 122.586 335.27 121.36L343.1 109.48L351.365 121.8C352.157 123.026 353.432 124 354.845 124H366.155L350.06 99.36Z" fill="white"/>
<path d="M129.08 124H177.365C178.906 124 180.381 123.452 181.715 122.68C183.049 121.908 184.425 120.938 185.195 119.6C185.965 118.262 186.501 116.744 186.5 115.199C186.499 113.655 185.966 112.138 185.195 110.8L152.57 54.04C151.8 52.7024 150.859 51.7323 149.525 50.96C148.191 50.1877 146.28 49.64 144.74 49.64C143.2 49.64 141.724 50.1877 140.39 50.96C139.056 51.7323 138.115 52.7024 137.345 54.04L129.08 68.56L112.55 40.399C111.779 39.0615 110.839 37.6522 109.505 36.88C108.171 36.1078 106.696 36 105.155 36C103.614 36 102.139 36.1078 100.805 36.88C99.4706 37.6522 98.0958 39.0615 97.325 40.399L56.87 110.8C56.0987 112.138 56.0007 113.655 56 115.199C55.9993 116.744 56.0999 118.262 56.87 119.6C57.6401 120.938 59.0156 121.908 60.35 122.68C61.6844 123.452 63.1591 124 64.7 124H95.15C107.216 124 115.997 118.525 122.12 108.16L136.91 82.2L144.74 68.56L168.665 109.92H136.91L129.08 124ZM94.715 109.92H73.4L105.155 54.48L121.25 82.2L110.589 100.999C106.523 107.724 101.887 109.92 94.715 109.92Z" fill="#00DC82"/>
</g>
<defs>
<clipPath id="clip0_53_22">
<rect width="348" height="88" fill="white" transform="translate(56 36)"/>
</clipPath>
</defs>
</svg>
