<svg width="460" height="160" viewBox="0 0 460 160" fill="none" xmlns="http://www.w3.org/2000/svg">
<g clip-path="url(#clip0_53_43)">
<path fill-rule="evenodd" clip-rule="evenodd" d="M123.15 102.898C123.942 113.071 123.942 117.84 123.942 123.045H100.403C100.403 121.911 100.423 120.874 100.443 119.822C100.507 116.553 100.574 113.144 100.044 106.259C99.3442 96.1787 95.0029 93.939 87.0211 93.939H79.9494H50V75.5992H88.1413C98.2237 75.5992 103.265 72.5324 103.265 64.4125C103.265 57.2727 98.2237 52.9459 88.1413 52.9459H50V35H92.3423C115.168 35 126.51 45.7798 126.51 62.9994C126.51 75.8792 118.529 84.2789 107.746 85.6788C116.848 87.4991 122.169 92.6788 123.15 102.898Z" fill="url(#paint0_linear_53_43)"/>
<path fill-rule="evenodd" clip-rule="evenodd" d="M123.15 102.898C123.942 113.071 123.942 117.84 123.942 123.045H100.403C100.403 121.911 100.423 120.874 100.443 119.822C100.507 116.553 100.574 113.144 100.044 106.259C99.3442 96.1787 95.0029 93.939 87.0211 93.939H79.9494H50V75.5992H88.1413C98.2237 75.5992 103.265 72.5324 103.265 64.4125C103.265 57.2727 98.2237 52.9459 88.1413 52.9459H50V35H92.3423C115.168 35 126.51 45.7798 126.51 62.9994C126.51 75.8792 118.529 84.2789 107.746 85.6788C116.848 87.4991 122.169 92.6788 123.15 102.898Z" fill="white"/>
<path d="M50 123.045V109.374H74.8886C79.0458 109.374 79.9485 112.456 79.9485 114.295V123.045H50Z" fill="url(#paint1_linear_53_43)"/>
<path d="M50 123.045V109.374H74.8886C79.0458 109.374 79.9485 112.456 79.9485 114.295V123.045H50Z" fill="white"/>
<path d="M50 123.046V109.375H74.8889C79.0462 109.375 79.9488 112.457 79.9488 114.296V123.046H50Z" fill="white"/>
<path d="M408.039 60.7595H384.653L374.01 75.5994L363.648 60.7595H338.582L361.127 91.4195L336.621 123.199H360.007L372.47 106.259L384.933 123.199H409.999L385.353 90.439L408.039 60.7595Z" fill="white"/>
<path d="M175.5 100.94C173.399 105.839 169.478 107.939 163.317 107.939C156.455 107.939 150.854 104.299 150.293 96.5997H194.124V90.2995C194.124 73.3597 183.061 59.0798 162.196 59.0798C142.732 59.0798 128.168 73.2197 128.168 92.9596C128.168 112.839 142.452 124.879 162.476 124.879C179 124.879 190.483 116.899 193.704 102.62L175.5 100.94ZM150.573 85.6794C151.414 79.7996 154.634 75.3197 161.916 75.3197C168.638 75.3197 172.279 80.0797 172.559 85.6794H150.573Z" fill="white"/>
<path d="M260.738 71.3997C258.077 64.1198 252.336 59.0798 241.273 59.0798C231.891 59.0798 225.169 63.2798 221.808 70.1398V60.7598H199.123V123.199H221.808V92.5397C221.808 83.1596 224.469 76.9997 231.891 76.9997C238.753 76.9997 240.433 81.4797 240.433 90.0197V123.199H263.118V92.5397C263.118 83.1596 265.639 76.9997 273.201 76.9997C280.063 76.9997 281.603 81.4797 281.603 90.0197V123.199H304.288V83.9997C304.288 70.9797 299.248 59.0798 282.023 59.0798C271.521 59.0798 264.099 64.3998 260.738 71.3997Z" fill="white"/>
<path d="M311.708 60.7598V123.2H334.394V60.7598H311.708ZM311.568 54.8798H334.534V35H311.568V54.8798Z" fill="white"/>
</g>
<defs>
<linearGradient id="paint0_linear_53_43" x1="88.2551" y1="35" x2="88.2551" y2="123.045" gradientUnits="userSpaceOnUse">
<stop stop-color="white"/>
<stop offset="1" stop-color="white" stop-opacity="0"/>
</linearGradient>
<linearGradient id="paint1_linear_53_43" x1="64.9742" y1="109.374" x2="64.9742" y2="123.045" gradientUnits="userSpaceOnUse">
<stop stop-color="white"/>
<stop offset="1" stop-color="white" stop-opacity="0"/>
</linearGradient>
<clipPath id="clip0_53_43">
<rect width="360" height="89.8792" fill="white" transform="translate(50 35)"/>
</clipPath>
</defs>
</svg>
