<svg width="460" height="160" viewBox="0 0 460 160" fill="none" xmlns="http://www.w3.org/2000/svg">
<path d="M166.062 104.781C162.157 104.879 158.313 103.793 155.037 101.665C151.976 99.6469 149.703 96.6365 148.6 93.14L155.311 90.6744C156.241 92.8221 157.76 94.6623 159.693 95.9815C161.656 97.2963 163.974 97.9775 166.335 97.9332C168.606 98.0518 170.846 97.3736 172.669 96.016C173.462 95.35 174.089 94.5079 174.499 93.5567C174.909 92.6056 175.092 91.5718 175.032 90.5378C175.041 89.5745 174.818 88.6232 174.381 87.7646C174.001 86.9963 173.505 86.2915 172.909 85.6753C172.155 84.9894 171.301 84.4235 170.375 83.9975C169.233 83.4278 168.286 82.9941 167.533 82.6964C166.78 82.4006 165.673 82.0012 164.212 81.4981C162.386 80.8593 161.016 80.3573 160.104 79.9922C158.867 79.4659 157.666 78.8596 156.509 78.1771C155.263 77.5161 154.13 76.661 153.153 75.644C152.308 74.6509 151.626 73.5296 151.133 72.3222C150.188 70.0201 149.99 67.4791 150.567 65.0584C151.145 62.6377 152.468 60.4598 154.351 58.8325C157.091 56.4131 160.812 55.2033 165.514 55.2031C169.439 55.2031 172.669 56.0705 175.203 57.8052C177.662 59.4406 179.468 61.8891 180.304 64.722L173.731 66.9129C173.07 65.4293 171.955 64.1942 170.546 63.3863C168.842 62.4411 166.913 61.9793 164.966 62.0507C163.056 61.9411 161.164 62.4713 159.59 63.5574C158.947 64.0557 158.434 64.7019 158.094 65.441C157.754 66.1801 157.598 66.9903 157.638 67.8028C157.644 68.4258 157.781 69.0406 158.041 69.6071C158.3 70.1735 158.676 70.6789 159.144 71.0901C160.054 71.9859 161.122 72.7056 162.294 73.2128C163.39 73.6695 165.057 74.2858 167.294 75.0616C168.662 75.5647 169.678 75.9413 170.34 76.1917C171.002 76.442 171.973 76.8642 173.251 77.4583C174.275 77.9117 175.26 78.4501 176.195 79.0677C177.032 79.6699 177.832 80.3216 178.592 81.0194C179.417 81.7354 180.123 82.5792 180.681 83.5185C181.212 84.4929 181.626 85.5271 181.913 86.5993C182.263 87.8592 182.436 89.1615 182.427 90.4689C182.427 94.9434 180.898 98.447 177.839 100.98C174.78 103.514 170.854 104.781 166.062 104.781ZM209.955 103.959L193.52 56.025H201.19L212.077 89.442C212.679 91.2391 213.182 93.068 213.584 94.9202C213.985 93.0678 214.488 91.2389 215.091 89.442L225.842 56.0247H233.443L217.076 103.959H209.955ZM247.959 103.959V56.025H277.678V62.7361H255.081V75.8836H269.666V82.5947H255.081V97.2481H279.184V103.959H247.959ZM297.33 103.959V56.025H304.452V97.1116H327.871V103.959L297.33 103.959ZM354.713 62.8726V103.959H347.591V62.8726H334.033V56.025H368.271V62.8727L354.713 62.8726ZM382.994 103.959V56.025H412.713V62.7361H390.116V75.8836H404.701V82.5947H390.116V97.2481H414.219V103.959H382.994Z" fill="white"/>
<path d="M116.114 46.908C107.757 34.9468 91.252 31.4014 79.3178 39.0051L58.3585 52.3634C55.5271 54.1447 53.0985 56.4971 51.2279 59.2704C49.3574 62.0436 48.0861 65.1767 47.4952 68.4692C46.4955 74.0154 47.3742 79.7365 49.9924 84.7269C48.1984 87.4484 46.9748 90.5054 46.3955 93.7132C45.7984 97.072 45.8781 100.516 46.6297 103.844C47.3813 107.172 48.7899 110.316 50.7728 113.092C59.1317 125.054 75.6372 128.598 87.5695 120.995L108.529 107.636C111.36 105.855 113.789 103.503 115.66 100.73C117.53 97.9564 118.801 94.8233 119.392 91.5307C120.391 85.9846 119.513 80.2635 116.896 75.2726C118.69 72.5511 119.913 69.4942 120.492 66.2867C121.089 62.9279 121.01 59.4835 120.258 56.1558C119.506 52.828 118.098 49.684 116.114 46.908Z" fill="#FF3E00"/>
<path d="M77.2706 114.217C73.9724 115.075 70.4904 114.9 67.295 113.715C64.0995 112.531 61.3446 110.394 59.4022 107.594C58.2095 105.924 57.3622 104.034 56.91 102.033C56.4579 100.031 56.41 97.96 56.7692 95.94C56.8908 95.2768 57.0581 94.6228 57.27 93.9828L57.6648 92.7792L58.7385 93.5679C61.2184 95.39 63.9912 96.7754 66.9373 97.6643L67.7163 97.9006L67.6446 98.6781C67.5494 99.7841 67.8489 100.888 68.49 101.794C69.0746 102.638 69.9039 103.282 70.866 103.639C71.8282 103.996 72.8767 104.049 73.8701 103.791C74.3255 103.67 74.7597 103.479 75.1574 103.226L96.1168 89.8687C96.6296 89.5458 97.0696 89.1195 97.4087 88.6172C97.7477 88.1148 97.9784 87.5474 98.0861 86.9509C98.1936 86.3421 98.1789 85.7179 98.0426 85.1148C97.9064 84.5117 97.6513 83.9418 97.2925 83.4384C96.7076 82.5947 95.8779 81.9508 94.9155 81.5935C93.953 81.2362 92.9042 81.1827 91.9104 81.4404C91.4555 81.5621 91.0219 81.7528 90.6247 82.0058L82.6265 87.1043C81.3113 87.9405 79.8761 88.5708 78.3705 88.9734C75.0721 89.831 71.59 89.6557 68.3945 88.4712C65.199 87.2867 62.4439 85.15 60.5014 82.3498C59.3087 80.6804 58.4615 78.7897 58.0093 76.7885C57.5572 74.7873 57.5093 72.716 57.8685 70.6961C58.2237 68.7162 58.9883 66.8322 60.1132 65.1647C61.2381 63.4972 62.6987 62.0828 64.4015 61.012L85.3595 47.654C86.6753 46.8164 88.1116 46.1854 89.6185 45.7828C92.9167 44.9252 96.3987 45.1005 99.5942 46.285C102.79 47.4695 105.545 49.6061 107.487 52.4063C108.68 54.0756 109.527 55.9664 109.979 57.9676C110.431 59.9688 110.479 62.0401 110.12 64.0601C109.998 64.7232 109.831 65.3771 109.619 66.0173L109.224 67.2209L108.151 66.4334C105.672 64.6102 102.898 63.2242 99.9518 62.3352L99.1729 62.0988L99.2446 61.3214C99.339 60.2154 99.0396 59.1117 98.3992 58.2051C97.8147 57.3616 96.9853 56.7178 96.0232 56.3607C95.0611 56.0036 94.0125 55.9504 93.0192 56.2082C92.5637 56.33 92.1295 56.5208 91.7318 56.774L70.772 70.1314C70.2591 70.4541 69.8192 70.8803 69.4803 71.3827C69.1414 71.8851 68.911 72.4527 68.8039 73.0492C68.6957 73.658 68.71 74.2822 68.846 74.8854C68.9821 75.4886 69.237 76.0587 69.596 76.5621C70.1809 77.4058 71.0106 78.0497 71.973 78.407C72.9355 78.7643 73.9843 78.8177 74.9781 78.5601C75.4335 78.4381 75.8676 78.2473 76.2654 77.9943L84.2626 72.8977C85.5772 72.0604 87.0124 71.4295 88.5181 71.0271C91.8165 70.1696 95.2985 70.3449 98.494 71.5294C101.69 72.7139 104.445 74.8505 106.387 77.6507C107.58 79.3201 108.427 81.2108 108.879 83.212C109.331 85.2132 109.379 87.2845 109.02 89.3044C108.665 91.2844 107.9 93.1685 106.775 94.8363C105.65 96.504 104.19 97.9187 102.487 98.9901L81.5293 112.346C80.2136 113.184 78.7775 113.815 77.2706 114.217Z" fill="white"/>
</svg>
